<svg width="70" height="50" viewBox="0 0 70 50" fill="none" xmlns="http://www.w3.org/2000/svg">
<path d="M6.94167 49.5L16.3333 33C11.8417 33 7.99653 31.3844 4.79792 28.1531C1.59931 24.9219 0 21.0375 0 16.5C0 11.9625 1.59931 8.07812 4.79792 4.84687C7.99653 1.61562 11.8417 0 16.3333 0C20.825 0 24.6701 1.61562 27.8687 4.84687C31.0674 8.07812 32.6667 11.9625 32.6667 16.5C32.6667 18.0812 32.4795 19.5422 32.1052 20.8828C31.7309 22.2234 31.1694 23.5125 30.4208 24.75L16.3333 49.5H6.94167ZM43.6917 49.5L53.0833 33C48.5917 33 44.7465 31.3844 41.5479 28.1531C38.3493 24.9219 36.75 21.0375 36.75 16.5C36.75 11.9625 38.3493 8.07812 41.5479 4.84687C44.7465 1.61562 48.5917 0 53.0833 0C57.575 0 61.4201 1.61562 64.6188 4.84687C67.8174 8.07812 69.4167 11.9625 69.4167 16.5C69.4167 18.0812 69.2295 19.5422 68.8552 20.8828C68.4809 22.2234 67.9194 23.5125 67.1708 24.75L53.0833 49.5H43.6917ZM16.3333 22.6875C18.0347 22.6875 19.4809 22.0859 20.6719 20.8828C21.8628 19.6797 22.4583 18.2188 22.4583 16.5C22.4583 14.7812 21.8628 13.3203 20.6719 12.1172C19.4809 10.9141 18.0347 10.3125 16.3333 10.3125C14.6319 10.3125 13.1858 10.9141 11.9948 12.1172C10.8038 13.3203 10.2083 14.7812 10.2083 16.5C10.2083 18.2188 10.8038 19.6797 11.9948 20.8828C13.1858 22.0859 14.6319 22.6875 16.3333 22.6875ZM53.0833 22.6875C54.7847 22.6875 56.2309 22.0859 57.4219 20.8828C58.6128 19.6797 59.2083 18.2188 59.2083 16.5C59.2083 14.7812 58.6128 13.3203 57.4219 12.1172C56.2309 10.9141 54.7847 10.3125 53.0833 10.3125C51.3819 10.3125 49.9358 10.9141 48.7448 12.1172C47.5538 13.3203 46.9583 14.7812 46.9583 16.5C46.9583 18.2188 47.5538 19.6797 48.7448 20.8828C49.9358 22.0859 51.3819 22.6875 53.0833 22.6875Z" fill="#F41B3B" fill-opacity="0.09"/>
</svg>
